# xmcd
#
# Track frame offsets:
#	150
#	14917
#	28863
#	44239
#	63680
#	81640
#	94423
#	114280
#	120189
#	133833
#	153137
#	161774
#	174914
#	188413
#	200976
#	220751
#	242816
#	256105
#	257767
#	271056
#	282178
#	298921
#	317742
#	331935
#
# Disc length: 4659 seconds
#
# Revision: 4
# Processed by: cddbd v1.5.2PL0 Copyright (c) Steve Scherf et al.
# Submitted via: EZCDAudioConverter 1.3.4.1
#
DISCID=6d123118
DTITLE=V/A - Next Stop Is Vietnam 9/13
DYEAR=2010
DGENRE=
TTITLE0=All Of The Above - The War Is Over
TTITLE1=David L. Cash - We Are Glad That Our Boys Are Coming Home
TTITLE2=Bill Moss and The Celestials - Welcome The Boys Back Home
TTITLE3=Mick Lloyd - A Long Long Time Ago
TTITLE4=Robin St. Pierre - Ballad Of The Plastic Prince
TTITLE5=The Auditions - Returning Home From Vietnam
TTITLE6=Dr. William Truly, Jr. - (The Two Wars Of) Old Black Joe
TTITLE7=Wallace Terry interviews black fighting men in Vietnam
TTITLE8=Kenny Rogers and The First Edition - Ruby, Don't Take Your Love To Town
TTITLE9=John Prine - Sam Stone
TTITLE10=Hanoi Hannah News Broadcast Excerpt (1966, Courtesy of the U.S. Na
TTITLE10=tional Archives)
TTITLE11=Roger McGuinn - Hanoi Hannah
TTITLE12=Jane Fonda Hanoi Press Conference Excerpt (1972, Courtesy of the U
TTITLE12=S. National Archives)
TTITLE13=Leon Rausch - Hanoi Jane
TTITLE14=Covered Wagon Musicians - Napalm Sticks To Kids
TTITLE15=Gordon Sinclair - The Americans (A Canadian's Opinion)
TTITLE16=Charles Ashman - An American's Answer (To Gordon Sinclair)
TTITLE17=Text of President Jimmy Carter's pardon for draft dodgers (January
TTITLE17=21, 1977)
TTITLE18=Bob Aden - True Red White and Blue Never Run (Amnesty Be Damned)
TTITLE19=John Paul Brennan - Vietnam
TTITLE20=Tom Paxton - Born On The Fourth Of July
TTITLE21=Cold Chisel - Khe Sanh
TTITLE22=Mike Callender - Soldier Of 'Nam
TTITLE23=Charlie Daniels Band - Still In Saigon
EXTD=
EXTT0=
EXTT1=
EXTT2=
EXTT3=
EXTT4=
EXTT5=
EXTT6=
EXTT7=
EXTT8=
EXTT9=
EXTT10=
EXTT11=
EXTT12=
EXTT13=
EXTT14=
EXTT15=
EXTT16=
EXTT17=
EXTT18=
EXTT19=
EXTT20=
EXTT21=
EXTT22=
EXTT23=
PLAYORDER=
